<svg width="128" height="56" viewBox="0 0 128 56" fill="none" xmlns="http://www.w3.org/2000/svg">
<g clip-path="url(#clip0_5517_14056)">
<rect width="127.125" height="55.2645" rx="2.78319" fill="#1B252C"/>
<path d="M63.5792 55.2589C43.4846 55.2589 23.3899 55.2589 3.2953 55.2589C3.11161 55.2589 2.92235 55.2534 2.73866 55.2422C1.06318 55.1031 0.00556672 53.9564 0.00556672 52.2642C0.00556672 43.2355 0.00556672 34.2069 0.00556672 25.1726C0.00556672 17.7916 0.0111328 10.4105 0 3.03507C0 1.98859 0.395214 1.17033 1.20791 0.535765C1.71445 0.140551 2.31005 0.0292237 2.93348 0.00695816C3.26747 -0.00417462 3.60145 0.00139143 3.93543 0.00139143C43.8297 0.00139143 83.7184 0.00139143 123.613 0.00139143C123.963 0.00139143 124.32 0.00695748 124.665 0.0514886C126.084 0.240746 127.108 1.40412 127.119 2.83468C127.131 3.96466 127.119 5.09464 127.119 6.23018C127.119 21.5656 127.119 36.901 127.125 52.2308C127.125 53.4666 126.602 54.3627 125.539 54.9583C125.038 55.2422 124.475 55.2589 123.919 55.2589C121.397 55.2645 118.876 55.2645 116.354 55.2645C98.7643 55.2589 81.169 55.2589 63.5792 55.2589ZM63.5403 52.6873C63.5403 52.6817 63.5403 52.6817 63.5403 52.6873C65.1322 52.6817 66.7298 52.6817 68.3218 52.6817C86.7688 52.6817 105.216 52.6873 123.663 52.6873C124.553 52.6873 124.553 52.6873 124.553 51.7911C124.553 35.7153 124.553 19.634 124.548 3.55831C124.548 2.63429 124.681 2.57863 123.579 2.57863C115.758 2.5842 107.932 2.5842 100.111 2.5842C67.9266 2.5842 35.7473 2.5842 3.56248 2.57863C2.58837 2.57863 2.58837 2.57863 2.58837 3.55831C2.58837 19.6006 2.58837 35.6374 2.58837 51.6798C2.58837 52.6873 2.58837 52.6873 3.59032 52.6873C23.5681 52.6873 43.5514 52.6873 63.5403 52.6873Z" fill="white"/>
<path d="M115.892 36.3777C115.647 36.4 115.486 36.4278 115.33 36.4278C113.905 36.4334 112.474 36.4334 111.049 36.4278C110.548 36.4278 110.548 36.4222 110.393 35.9435C110.081 34.9917 109.78 34.0398 109.457 33.049C109.268 33.0379 109.09 33.0101 108.906 33.0101C106.407 33.0101 103.902 33.0101 101.403 33.0101C100.841 33.0101 100.841 33.0156 100.668 33.5444C100.418 34.3182 100.173 35.0974 99.9221 35.8712C99.8665 36.0437 99.7941 36.2107 99.7218 36.4C99.5325 36.4111 99.3655 36.4278 99.2041 36.4278C97.7958 36.4278 96.3875 36.4167 94.9792 36.4389C94.584 36.4445 94.3391 36.3221 94.1276 35.9769C92.5912 33.4609 91.0326 30.9616 89.4852 28.4567C88.628 27.0707 87.7819 25.6736 86.9079 24.2987C86.702 23.9702 86.6964 23.7309 86.9024 23.3969C89.1957 19.7175 91.4724 16.027 93.7546 12.3365C93.7824 12.2919 93.8158 12.2419 93.8437 12.1973C94.5729 11.0395 94.1888 11.2566 95.5191 11.251C99.3711 11.2399 103.229 11.2455 107.081 11.2455C107.303 11.2455 107.52 11.2455 107.81 11.2455C110.498 19.6173 113.181 27.9669 115.892 36.3777ZM102.527 27.7832C103.028 27.9279 107.214 27.9279 107.687 27.7999C107.654 27.2878 105.361 20.1962 105.088 19.8066C104.225 22.484 103.379 25.1336 102.527 27.7832Z" fill="white"/>
<path d="M42.0763 11.2788C47.5202 11.2788 52.9586 11.2788 58.4526 11.2788C58.4638 11.546 58.486 11.7798 58.486 12.0191C58.486 18.1923 58.486 24.371 58.4916 30.5441C58.4916 30.7779 58.5139 31.0117 58.525 31.3122C63.98 31.3122 69.385 31.3122 74.7621 31.3122C74.918 31.752 74.957 35.654 74.8345 36.3443C74.417 36.4667 54.5562 36.5168 53.4373 36.3888C53.4262 36.1884 53.3984 35.9769 53.3984 35.7654C53.3984 31.8911 53.4039 28.0169 53.3928 24.1372C53.3872 21.5933 52.786 19.2109 51.3666 17.079C49.3349 14.0175 46.5127 12.1472 42.8723 11.5349C42.5996 11.4903 42.3324 11.4291 42.0596 11.379C42.0708 11.3456 42.0708 11.3122 42.0763 11.2788Z" fill="white"/>
<path d="M11.283 16.3608C11.283 14.624 11.283 12.982 11.283 11.351C11.7228 11.2286 32.0067 11.1952 32.6357 11.312C32.7637 11.6906 32.8027 15.6037 32.6635 16.3496C32.0234 16.3552 31.361 16.3608 30.7041 16.3663C30.0195 16.3663 29.3348 16.3663 28.6446 16.3663C27.9766 16.3663 27.3086 16.3663 26.6407 16.3663C25.9727 16.3663 25.3103 16.3663 24.5811 16.3663C24.5644 16.6168 24.5421 16.8283 24.5421 17.0454C24.5421 23.2186 24.5421 29.3917 24.5421 35.5704C24.5421 35.8264 24.5421 36.0769 24.5421 36.3107C24.0523 36.4721 20.0334 36.4888 19.4322 36.333C19.4211 34.6909 19.4266 33.0321 19.4266 31.3678C19.4266 29.7201 19.4266 28.0669 19.4266 26.4192C19.4266 24.7493 19.4266 23.0794 19.4266 21.415C19.4266 19.7674 19.4266 18.1197 19.4266 16.3886C18.7197 16.383 18.0629 16.3775 17.4005 16.3719C16.7158 16.3719 16.0311 16.3719 15.3409 16.3719C14.6729 16.3719 14.005 16.3719 13.337 16.3719C12.6746 16.3608 12.0122 16.3608 11.283 16.3608Z" fill="white"/>
<path d="M40.9018 31.3845C36.8662 31.4458 33.4317 28.0781 33.3705 23.959C33.3092 19.8399 36.5656 16.3219 40.9408 16.2941C44.7259 16.2718 48.3774 19.3166 48.4442 23.7419C48.5055 27.861 45.2157 31.3456 40.9018 31.3845Z" fill="white"/>
<path d="M78.0463 28.1397C78.0463 22.5399 78.0463 16.9456 78.0463 11.3514C78.4916 11.2178 87.9433 11.2011 88.5501 11.3514C87.7151 12.7876 86.8301 14.1624 85.9729 15.554C85.0989 16.9735 84.2194 18.3929 83.3455 19.8068C82.4772 21.2095 81.6144 22.6122 80.746 24.015C79.8832 25.4066 79.0371 26.8037 78.1577 28.1842C78.1187 28.1675 78.0853 28.1508 78.0463 28.1397Z" fill="white"/>
<path d="M88.5834 36.3946C85.3159 36.3946 82.1654 36.3946 79.0037 36.3946C79.0927 35.9938 83.2619 29.175 83.7629 28.6128C84.6201 29.8764 85.3716 31.1789 86.1676 32.4536C86.9692 33.7394 87.7763 35.0086 88.5834 36.3946Z" fill="white"/>
<path d="M19.0475 43.0381V42.7307H20.6625V43.0381H20.0369V44.7549H19.6731V43.0381H19.0475ZM21.3078 44.7549V42.7307H22.6243V43.0381H21.6745V43.5876H22.5561V43.895H21.6745V44.4475H22.6322V44.7549H21.3078ZM23.5923 44.7549H23.2009L23.9135 42.7307H24.3662L25.0798 44.7549H24.6884L24.1477 43.1458H24.1319L23.5923 44.7549ZM23.6051 43.9612H24.6726V44.2558H23.6051V43.9612ZM27.3178 43.4137H26.9482C26.9376 43.3531 26.9182 43.2994 26.8898 43.2526C26.8615 43.2052 26.8263 43.165 26.7841 43.132C26.7419 43.0991 26.6938 43.0744 26.6398 43.0579C26.5864 43.0408 26.5288 43.0322 26.4668 43.0322C26.3568 43.0322 26.2593 43.0599 26.1743 43.1152C26.0893 43.1699 26.0227 43.2503 25.9746 43.3564C25.9265 43.4618 25.9025 43.5906 25.9025 43.7428C25.9025 43.8977 25.9265 44.0281 25.9746 44.1342C26.0234 44.2396 26.0899 44.3194 26.1743 44.3734C26.2593 44.4268 26.3565 44.4534 26.4658 44.4534C26.5265 44.4534 26.5831 44.4455 26.6358 44.4297C26.6892 44.4132 26.737 44.3892 26.7791 44.3576C26.822 44.3259 26.8579 44.2871 26.8869 44.2409C26.9165 44.1948 26.937 44.1421 26.9482 44.0828L27.3178 44.0848C27.304 44.181 27.274 44.2713 27.2279 44.3556C27.1824 44.4399 27.1228 44.5144 27.049 44.579C26.9752 44.6429 26.8889 44.6929 26.79 44.7292C26.6912 44.7648 26.5815 44.7826 26.4609 44.7826C26.283 44.7826 26.1242 44.7414 25.9845 44.659C25.8448 44.5767 25.7348 44.4577 25.6544 44.3022C25.574 44.1467 25.5338 43.9602 25.5338 43.7428C25.5338 43.5247 25.5743 43.3382 25.6554 43.1834C25.7364 43.0279 25.8468 42.909 25.9865 42.8266C26.1262 42.7442 26.2843 42.7031 26.4609 42.7031C26.5736 42.7031 26.6783 42.7189 26.7752 42.7505C26.8721 42.7821 26.9584 42.8286 27.0341 42.8899C27.1099 42.9505 27.1722 43.0249 27.2209 43.1132C27.2704 43.2009 27.3026 43.301 27.3178 43.4137ZM27.9876 44.7549V42.7307H28.3543V43.5876H29.2922V42.7307H29.6599V44.7549H29.2922V43.895H28.3543V44.7549H27.9876ZM30.7593 42.7307V44.7549H30.3926V42.7307H30.7593ZM33.1538 42.7307V44.7549H32.8276L31.8739 43.3761H31.8571V44.7549H31.4904V42.7307H31.8185L32.7713 44.1105H32.7891V42.7307H33.1538ZM35.2433 43.3771C35.2268 43.3238 35.2041 43.276 35.1751 43.2338C35.1468 43.191 35.1125 43.1544 35.0723 43.1241C35.0328 43.0938 34.9873 43.0711 34.9359 43.0559C34.8845 43.0401 34.8285 43.0322 34.7679 43.0322C34.6592 43.0322 34.5623 43.0595 34.4773 43.1142C34.3923 43.1689 34.3255 43.2493 34.2767 43.3554C34.2286 43.4608 34.2045 43.5893 34.2045 43.7408C34.2045 43.8937 34.2286 44.0232 34.2767 44.1293C34.3248 44.2353 34.3917 44.3161 34.4773 44.3714C34.563 44.4261 34.6625 44.4534 34.7758 44.4534C34.8786 44.4534 34.9676 44.4337 35.0427 44.3941C35.1184 44.3546 35.1768 44.2986 35.2176 44.2261C35.2585 44.153 35.2789 44.0673 35.2789 43.9691L35.3619 43.982H34.8124V43.6954H35.6337V43.9385C35.6337 44.1118 35.5968 44.2617 35.523 44.3882C35.4492 44.5147 35.3477 44.6122 35.2186 44.6808C35.0895 44.7486 34.9412 44.7826 34.7738 44.7826C34.5874 44.7826 34.4236 44.7407 34.2826 44.657C34.1423 44.5727 34.0326 44.4531 33.9535 44.2983C33.8751 44.1428 33.8359 43.9583 33.8359 43.7448C33.8359 43.5814 33.859 43.4354 33.9051 43.307C33.9519 43.1785 34.0171 43.0694 34.1008 42.9798C34.1845 42.8895 34.2826 42.821 34.3953 42.7742C34.508 42.7268 34.6305 42.7031 34.763 42.7031C34.875 42.7031 34.9794 42.7195 35.0763 42.7525C35.1731 42.7848 35.2591 42.8309 35.3342 42.8909C35.41 42.9508 35.4723 43.022 35.521 43.1043C35.5698 43.1867 35.6017 43.2776 35.6169 43.3771H35.2433ZM39.1553 43.7428C39.1553 43.9609 39.1144 44.1477 39.0327 44.3032C38.9517 44.458 38.841 44.5767 38.7006 44.659C38.561 44.7414 38.4025 44.7826 38.2252 44.7826C38.048 44.7826 37.8892 44.7414 37.7489 44.659C37.6092 44.576 37.4985 44.4571 37.4168 44.3022C37.3357 44.1467 37.2952 43.9602 37.2952 43.7428C37.2952 43.5247 37.3357 43.3382 37.4168 43.1834C37.4985 43.0279 37.6092 42.909 37.7489 42.8266C37.8892 42.7442 38.048 42.7031 38.2252 42.7031C38.4025 42.7031 38.561 42.7442 38.7006 42.8266C38.841 42.909 38.9517 43.0279 39.0327 43.1834C39.1144 43.3382 39.1553 43.5247 39.1553 43.7428ZM38.7866 43.7428C38.7866 43.5893 38.7626 43.4598 38.7145 43.3544C38.667 43.2483 38.6011 43.1683 38.5168 43.1142C38.4325 43.0595 38.3353 43.0322 38.2252 43.0322C38.1152 43.0322 38.018 43.0595 37.9337 43.1142C37.8493 43.1683 37.7831 43.2483 37.735 43.3544C37.6876 43.4598 37.6639 43.5893 37.6639 43.7428C37.6639 43.8963 37.6876 44.0261 37.735 44.1322C37.7831 44.2376 37.8493 44.3177 37.9337 44.3724C38.018 44.4264 38.1152 44.4534 38.2252 44.4534C38.3353 44.4534 38.4325 44.4264 38.5168 44.3724C38.6011 44.3177 38.667 44.2376 38.7145 44.1322C38.7626 44.0261 38.7866 43.8963 38.7866 43.7428ZM41.4993 42.7307V44.7549H41.1732L40.2194 43.3761H40.2026V44.7549H39.8359V42.7307H40.1641L41.1168 44.1105H41.1346V42.7307H41.4993ZM42.2328 44.7549V42.7307H42.5995V44.4475H43.491V44.7549H42.2328ZM44.5099 42.7307V44.7549H44.1432V42.7307H44.5099ZM46.9044 42.7307V44.7549H46.5782L45.6245 43.3761H45.6077V44.7549H45.241V42.7307H45.5691L46.5219 44.1105H46.5397V42.7307H46.9044ZM47.6379 44.7549V42.7307H48.9544V43.0381H48.0046V43.5876H48.8862V43.895H48.0046V44.4475H48.9623V44.7549H47.6379ZM50.6868 44.7549V42.7307H51.0535V44.4475H51.945V44.7549H50.6868ZM52.9332 44.7549H52.5418L53.2544 42.7307H53.7071L54.4207 44.7549H54.0293L53.4887 43.1458H53.4729L52.9332 44.7549ZM52.9461 43.9612H54.0135V44.2558H52.9461V43.9612ZM56.6847 42.7307V44.7549H56.3585L55.4048 43.3761H55.388V44.7549H55.0213V42.7307H55.3494L56.3022 44.1105H56.32V42.7307H56.6847ZM58.7742 43.3771C58.7577 43.3238 58.735 43.276 58.706 43.2338C58.6777 43.191 58.6434 43.1544 58.6032 43.1241C58.5637 43.0938 58.5182 43.0711 58.4668 43.0559C58.4155 43.0401 58.3594 43.0322 58.2988 43.0322C58.1901 43.0322 58.0932 43.0595 58.0083 43.1142C57.9233 43.1689 57.8564 43.2493 57.8076 43.3554C57.7595 43.4608 57.7355 43.5893 57.7355 43.7408C57.7355 43.8937 57.7595 44.0232 57.8076 44.1293C57.8557 44.2353 57.9226 44.3161 58.0083 44.3714C58.0939 44.4261 58.1934 44.4534 58.3067 44.4534C58.4095 44.4534 58.4985 44.4337 58.5736 44.3941C58.6494 44.3546 58.7077 44.2986 58.7485 44.2261C58.7894 44.153 58.8098 44.0673 58.8098 43.9691L58.8928 43.982H58.3433V43.6954H59.1646V43.9385C59.1646 44.1118 59.1277 44.2617 59.0539 44.3882C58.9801 44.5147 58.8787 44.6122 58.7495 44.6808C58.6204 44.7486 58.4721 44.7826 58.3048 44.7826C58.1183 44.7826 57.9546 44.7407 57.8135 44.657C57.6732 44.5727 57.5635 44.4531 57.4844 44.2983C57.406 44.1428 57.3668 43.9583 57.3668 43.7448C57.3668 43.5814 57.3899 43.4354 57.436 43.307C57.4828 43.1785 57.548 43.0694 57.6317 42.9798C57.7154 42.8895 57.8135 42.821 57.9262 42.7742C58.0389 42.7268 58.1614 42.7031 58.2939 42.7031C58.4059 42.7031 58.5103 42.7195 58.6072 42.7525C58.704 42.7848 58.79 42.8309 58.8651 42.8909C58.9409 42.9508 59.0032 43.022 59.0519 43.1043C59.1007 43.1867 59.1327 43.2776 59.1478 43.3771H58.7742ZM61.1291 42.7307H61.4958V44.0532C61.4958 44.1981 61.4615 44.3256 61.393 44.4356C61.3252 44.5457 61.2296 44.6317 61.1064 44.6936C60.9832 44.7549 60.8392 44.7855 60.6745 44.7855C60.5091 44.7855 60.3648 44.7549 60.2416 44.6936C60.1184 44.6317 60.0228 44.5457 59.955 44.4356C59.8871 44.3256 59.8532 44.1981 59.8532 44.0532V42.7307H60.2199V44.0225C60.2199 44.1069 60.2383 44.182 60.2752 44.2479C60.3128 44.3137 60.3655 44.3655 60.4333 44.403C60.5012 44.4399 60.5816 44.4584 60.6745 44.4584C60.7674 44.4584 60.8478 44.4399 60.9156 44.403C60.9842 44.3655 61.0369 44.3137 61.0738 44.2479C61.1107 44.182 61.1291 44.1069 61.1291 44.0225V42.7307ZM62.4883 44.7549H62.0969L62.8095 42.7307H63.2622L63.9757 44.7549H63.5844L63.0437 43.1458H63.0279L62.4883 44.7549ZM62.5011 43.9612H63.5685V44.2558H62.5011V43.9612ZM65.8372 43.3771C65.8208 43.3238 65.798 43.276 65.769 43.2338C65.7407 43.191 65.7064 43.1544 65.6662 43.1241C65.6267 43.0938 65.5812 43.0711 65.5298 43.0559C65.4785 43.0401 65.4224 43.0322 65.3618 43.0322C65.2531 43.0322 65.1563 43.0595 65.0713 43.1142C64.9863 43.1689 64.9194 43.2493 64.8706 43.3554C64.8225 43.4608 64.7985 43.5893 64.7985 43.7408C64.7985 43.8937 64.8225 44.0232 64.8706 44.1293C64.9187 44.2353 64.9856 44.3161 65.0713 44.3714C65.1569 44.4261 65.2564 44.4534 65.3697 44.4534C65.4725 44.4534 65.5615 44.4337 65.6366 44.3941C65.7124 44.3546 65.7707 44.2986 65.8115 44.2261C65.8524 44.153 65.8728 44.0673 65.8728 43.9691L65.9558 43.982H65.4063V43.6954H66.2276V43.9385C66.2276 44.1118 66.1907 44.2617 66.1169 44.3882C66.0431 44.5147 65.9417 44.6122 65.8125 44.6808C65.6834 44.7486 65.5351 44.7826 65.3678 44.7826C65.1813 44.7826 65.0176 44.7407 64.8765 44.657C64.7362 44.5727 64.6265 44.4531 64.5474 44.2983C64.469 44.1428 64.4298 43.9583 64.4298 43.7448C64.4298 43.5814 64.4529 43.4354 64.499 43.307C64.5458 43.1785 64.611 43.0694 64.6947 42.9798C64.7784 42.8895 64.8765 42.821 64.9892 42.7742C65.1019 42.7268 65.2244 42.7031 65.3569 42.7031C65.4689 42.7031 65.5733 42.7195 65.6702 42.7525C65.7671 42.7848 65.853 42.8309 65.9282 42.8909C66.0039 42.9508 66.0662 43.022 66.115 43.1043C66.1637 43.1867 66.1957 43.2776 66.2108 43.3771H65.8372ZM66.9162 44.7549V42.7307H68.2327V43.0381H67.2829V43.5876H68.1645V43.895H67.2829V44.4475H68.2406V44.7549H66.9162ZM70.0408 43.2872C70.0315 43.2009 69.9927 43.1337 69.9241 43.0856C69.8563 43.0375 69.768 43.0134 69.6593 43.0134C69.5828 43.0134 69.5173 43.0249 69.4626 43.048C69.4079 43.0711 69.3661 43.1024 69.3371 43.1419C69.3081 43.1814 69.2932 43.2266 69.2926 43.2773C69.2926 43.3195 69.3021 43.356 69.3213 43.387C69.341 43.418 69.3677 43.4443 69.4013 43.4661C69.4349 43.4872 69.4721 43.5049 69.513 43.5194C69.5538 43.5339 69.595 43.5461 69.6365 43.556L69.8263 43.6035C69.9027 43.6212 69.9762 43.6453 70.0467 43.6756C70.1179 43.7059 70.1814 43.7441 70.2375 43.7903C70.2941 43.8364 70.3389 43.8921 70.3719 43.9573C70.4048 44.0225 70.4213 44.0989 70.4213 44.1866C70.4213 44.3052 70.391 44.4096 70.3304 44.4999C70.2697 44.5895 70.1821 44.6597 70.0675 44.7104C69.9535 44.7605 69.8154 44.7855 69.6533 44.7855C69.4959 44.7855 69.3591 44.7611 69.2432 44.7124C69.1279 44.6636 69.0376 44.5925 68.9724 44.4989C68.9078 44.4053 68.8729 44.2913 68.8676 44.1569H69.2283C69.2336 44.2274 69.2554 44.2861 69.2936 44.3329C69.3318 44.3796 69.3815 44.4146 69.4428 44.4376C69.5048 44.4607 69.5739 44.4722 69.6504 44.4722C69.7301 44.4722 69.7999 44.4604 69.8599 44.4366C69.9205 44.4123 69.968 44.3787 70.0022 44.3358C70.0365 44.2923 70.0539 44.2416 70.0546 44.1836C70.0539 44.1309 70.0385 44.0874 70.0082 44.0532C69.9778 44.0182 69.9353 43.9892 69.8807 43.9662C69.8266 43.9425 69.7634 43.9214 69.6909 43.9029L69.4606 43.8436C69.2939 43.8008 69.1621 43.7359 69.0653 43.6489C68.9691 43.5613 68.921 43.445 68.921 43.3C68.921 43.1808 68.9533 43.0763 69.0178 42.9867C69.0831 42.8971 69.1717 42.8276 69.2837 42.7782C69.3957 42.7281 69.5225 42.7031 69.6642 42.7031C69.8078 42.7031 69.9337 42.7281 70.0418 42.7782C70.1505 42.8276 70.2358 42.8965 70.2977 42.9847C70.3597 43.0724 70.3916 43.1732 70.3936 43.2872H70.0408ZM72.1065 44.7549V42.7307H72.4732V43.6608H72.4979L73.2876 42.7307H73.7353L72.9525 43.639L73.7422 44.7549H73.3014L72.6975 43.8871L72.4732 44.152V44.7549H72.1065ZM75.9874 42.7307V44.7549H75.6613L74.7075 43.3761H74.6907V44.7549H74.324V42.7307H74.6522L75.6049 44.1105H75.6227V42.7307H75.9874ZM78.5296 43.7428C78.5296 43.9609 78.4888 44.1477 78.4071 44.3032C78.326 44.458 78.2153 44.5767 78.075 44.659C77.9353 44.7414 77.7768 44.7826 77.5996 44.7826C77.4224 44.7826 77.2636 44.7414 77.1232 44.659C76.9835 44.576 76.8728 44.4571 76.7911 44.3022C76.7101 44.1467 76.6696 43.9602 76.6696 43.7428C76.6696 43.5247 76.7101 43.3382 76.7911 43.1834C76.8728 43.0279 76.9835 42.909 77.1232 42.8266C77.2636 42.7442 77.4224 42.7031 77.5996 42.7031C77.7768 42.7031 77.9353 42.7442 78.075 42.8266C78.2153 42.909 78.326 43.0279 78.4071 43.1834C78.4888 43.3382 78.5296 43.5247 78.5296 43.7428ZM78.161 43.7428C78.161 43.5893 78.1369 43.4598 78.0888 43.3544C78.0414 43.2483 77.9755 43.1683 77.8912 43.1142C77.8068 43.0595 77.7096 43.0322 77.5996 43.0322C77.4896 43.0322 77.3924 43.0595 77.308 43.1142C77.2237 43.1683 77.1575 43.2483 77.1094 43.3544C77.0619 43.4598 77.0382 43.5893 77.0382 43.7428C77.0382 43.8963 77.0619 44.0261 77.1094 44.1322C77.1575 44.2376 77.2237 44.3177 77.308 44.3724C77.3924 44.4264 77.4896 44.4534 77.5996 44.4534C77.7096 44.4534 77.8068 44.4264 77.8912 44.3724C77.9755 44.3177 78.0414 44.2376 78.0888 44.1322C78.1369 44.0261 78.161 43.8963 78.161 43.7428ZM79.5846 44.7549L79.0134 42.7307H79.4077L79.7724 44.2182H79.7912L80.1806 42.7307H80.5394L80.9298 44.2192H80.9476L81.3123 42.7307H81.7066L81.1353 44.7549H80.7736L80.3684 43.3346H80.3526L79.9464 44.7549H79.5846ZM82.2948 44.7549V42.7307H82.6615V44.4475H83.553V44.7549H82.2948ZM84.2052 44.7549V42.7307H85.5217V43.0381H84.5719V43.5876H85.4535V43.895H84.5719V44.4475H85.5296V44.7549H84.2052ZM86.9157 44.7549H86.2298V42.7307H86.9295C87.1305 42.7307 87.3031 42.7713 87.4474 42.8523C87.5924 42.9327 87.7038 43.0483 87.7815 43.1992C87.8593 43.3501 87.8981 43.5306 87.8981 43.7408C87.8981 43.9517 87.8589 44.1329 87.7805 44.2844C87.7028 44.436 87.5904 44.5523 87.4435 44.6333C87.2972 44.7144 87.1213 44.7549 86.9157 44.7549ZM86.5965 44.4376H86.8979C87.0389 44.4376 87.1565 44.4119 87.2508 44.3605C87.345 44.3085 87.4158 44.2311 87.4633 44.1283C87.5107 44.0248 87.5344 43.8957 87.5344 43.7408C87.5344 43.586 87.5107 43.4575 87.4633 43.3554C87.4158 43.2526 87.3456 43.1758 87.2527 43.1251C87.1605 43.0737 87.0458 43.048 86.9088 43.048H86.5965V44.4376ZM89.9365 43.3771C89.92 43.3238 89.8973 43.276 89.8683 43.2338C89.84 43.191 89.8057 43.1544 89.7655 43.1241C89.726 43.0938 89.6805 43.0711 89.6291 43.0559C89.5778 43.0401 89.5217 43.0322 89.4611 43.0322C89.3524 43.0322 89.2555 43.0595 89.1706 43.1142C89.0856 43.1689 89.0187 43.2493 88.9699 43.3554C88.9218 43.4608 88.8978 43.5893 88.8978 43.7408C88.8978 43.8937 88.9218 44.0232 88.9699 44.1293C89.018 44.2353 89.0849 44.3161 89.1706 44.3714C89.2562 44.4261 89.3557 44.4534 89.469 44.4534C89.5718 44.4534 89.6608 44.4337 89.7359 44.3941C89.8117 44.3546 89.87 44.2986 89.9108 44.2261C89.9517 44.153 89.9721 44.0673 89.9721 43.9691L90.0551 43.982H89.5056V43.6954H90.3269V43.9385C90.3269 44.1118 90.29 44.2617 90.2162 44.3882C90.1424 44.5147 90.041 44.6122 89.9118 44.6808C89.7827 44.7486 89.6344 44.7826 89.4671 44.7826C89.2806 44.7826 89.1169 44.7407 88.9758 44.657C88.8355 44.5727 88.7258 44.4531 88.6467 44.2983C88.5683 44.1428 88.5291 43.9583 88.5291 43.7448C88.5291 43.5814 88.5522 43.4354 88.5983 43.307C88.6451 43.1785 88.7103 43.0694 88.794 42.9798C88.8777 42.8895 88.9758 42.821 89.0885 42.7742C89.2012 42.7268 89.3237 42.7031 89.4562 42.7031C89.5682 42.7031 89.6726 42.7195 89.7695 42.7525C89.8663 42.7848 89.9523 42.8309 90.0275 42.8909C90.1032 42.9508 90.1655 43.022 90.2142 43.1043C90.263 43.1867 90.295 43.2776 90.3101 43.3771H89.9365ZM91.0155 44.7549V42.7307H92.332V43.0381H91.3822V43.5876H92.2638V43.895H91.3822V44.4475H92.3399V44.7549H91.0155ZM94.3243 44.7549H93.9329L94.6455 42.7307H95.0982L95.8118 44.7549H95.4204L94.8798 43.1458H94.864L94.3243 44.7549ZM94.3372 43.9612H95.4046V44.2558H94.3372V43.9612ZM98.0758 42.7307V44.7549H97.7496L96.7958 43.3761H96.779V44.7549H96.4124V42.7307H96.7405L97.6933 44.1105H97.7111V42.7307H98.0758ZM99.4952 44.7549H98.8093V42.7307H99.509C99.71 42.7307 99.8826 42.7713 100.027 42.8523C100.172 42.9327 100.283 43.0483 100.361 43.1992C100.439 43.3501 100.478 43.5306 100.478 43.7408C100.478 43.9517 100.438 44.1329 100.36 44.2844C100.282 44.436 100.17 44.5523 100.023 44.6333C99.8767 44.7144 99.7008 44.7549 99.4952 44.7549ZM99.176 44.4376H99.4774C99.6184 44.4376 99.736 44.4119 99.8303 44.3605C99.9245 44.3085 99.9953 44.2311 100.043 44.1283C100.09 44.0248 100.114 43.8957 100.114 43.7408C100.114 43.586 100.09 43.4575 100.043 43.3554C99.9953 43.2526 99.9251 43.1758 99.8322 43.1251C99.74 43.0737 99.6253 43.048 99.4883 43.048H99.176V44.4376ZM102.444 44.7549H102.053L102.765 42.7307H103.218L103.932 44.7549H103.54L103 43.1458H102.984L102.444 44.7549ZM102.457 43.9612H103.525V44.2558H102.457V43.9612ZM104.532 44.7549V42.7307H105.307C105.453 42.7307 105.575 42.7538 105.672 42.7999C105.769 42.8454 105.842 42.9077 105.89 42.9867C105.939 43.0658 105.963 43.1554 105.963 43.2556C105.963 43.3379 105.948 43.4084 105.916 43.4671C105.884 43.525 105.842 43.5722 105.789 43.6084C105.735 43.6446 105.676 43.6707 105.61 43.6865V43.7062C105.681 43.7102 105.75 43.7323 105.816 43.7725C105.883 43.812 105.937 43.868 105.979 43.9405C106.021 44.013 106.043 44.1006 106.043 44.2034C106.043 44.3081 106.017 44.4024 105.966 44.4861C105.916 44.5691 105.839 44.6346 105.737 44.6827C105.635 44.7308 105.507 44.7549 105.352 44.7549H104.532ZM104.899 44.4485H105.293C105.426 44.4485 105.522 44.4231 105.581 44.3724C105.64 44.321 105.67 44.2551 105.67 44.1747C105.67 44.1148 105.655 44.0607 105.625 44.0126C105.596 43.9639 105.554 43.9257 105.499 43.898C105.444 43.8697 105.379 43.8555 105.303 43.8555H104.899V44.4485ZM104.899 43.5916H105.262C105.325 43.5916 105.382 43.5801 105.433 43.557C105.483 43.5333 105.523 43.5 105.552 43.4572C105.582 43.4137 105.597 43.3623 105.597 43.303C105.597 43.2246 105.569 43.16 105.514 43.1093C105.459 43.0585 105.378 43.0332 105.27 43.0332H104.899V43.5916ZM107.062 42.7307V44.7549H106.696V42.7307H107.062ZM107.793 44.7549V42.7307H108.16V44.4475H109.051V44.7549H107.793ZM110.07 42.7307V44.7549H109.704V42.7307H110.07ZM110.712 43.0381V42.7307H112.327V43.0381H111.702V44.7549H111.338V43.0381H110.712ZM113.339 42.7307V44.7549H112.973V42.7307H113.339ZM114.07 44.7549V42.7307H115.387V43.0381H114.437V43.5876H115.319V43.895H114.437V44.4475H115.395V44.7549H114.07ZM117.195 43.2872C117.186 43.2009 117.147 43.1337 117.078 43.0856C117.011 43.0375 116.922 43.0134 116.814 43.0134C116.737 43.0134 116.672 43.0249 116.617 43.048C116.562 43.0711 116.52 43.1024 116.491 43.1419C116.462 43.1814 116.447 43.2266 116.447 43.2773C116.447 43.3195 116.456 43.356 116.475 43.387C116.495 43.418 116.522 43.4443 116.556 43.4661C116.589 43.4872 116.626 43.5049 116.667 43.5194C116.708 43.5339 116.749 43.5461 116.791 43.556L116.981 43.6035C117.057 43.6212 117.13 43.6453 117.201 43.6756C117.272 43.7059 117.336 43.7441 117.392 43.7903C117.448 43.8364 117.493 43.8921 117.526 43.9573C117.559 44.0225 117.576 44.0989 117.576 44.1866C117.576 44.3052 117.545 44.4096 117.485 44.4999C117.424 44.5895 117.336 44.6597 117.222 44.7104C117.108 44.7605 116.97 44.7855 116.808 44.7855C116.65 44.7855 116.513 44.7611 116.397 44.7124C116.282 44.6636 116.192 44.5925 116.127 44.4989C116.062 44.4053 116.027 44.2913 116.022 44.1569H116.383C116.388 44.2274 116.41 44.2861 116.448 44.3329C116.486 44.3796 116.536 44.4146 116.597 44.4376C116.659 44.4607 116.728 44.4722 116.805 44.4722C116.884 44.4722 116.954 44.4604 117.014 44.4366C117.075 44.4123 117.122 44.3787 117.156 44.3358C117.191 44.2923 117.208 44.2416 117.209 44.1836C117.208 44.1309 117.193 44.0874 117.162 44.0532C117.132 44.0182 117.09 43.9892 117.035 43.9662C116.981 43.9425 116.918 43.9214 116.845 43.9029L116.615 43.8436C116.448 43.8008 116.316 43.7359 116.22 43.6489C116.123 43.5613 116.075 43.445 116.075 43.3C116.075 43.1808 116.107 43.0763 116.172 42.9867C116.237 42.8971 116.326 42.8276 116.438 42.7782C116.55 42.7281 116.677 42.7031 116.818 42.7031C116.962 42.7031 117.088 42.7281 117.196 42.7782C117.305 42.8276 117.39 42.8965 117.452 42.9847C117.514 43.0724 117.546 43.1732 117.548 43.2872H117.195Z" fill="white"/>
</g>
<defs>
<clipPath id="clip0_5517_14056">
<rect width="127.125" height="55.2645" rx="2.78319" fill="white"/>
</clipPath>
</defs>
</svg>
